<?xml version="1.0" encoding="UTF-8" standalone="no"?>
<svg
   xmlns:dc="http://purl.org/dc/elements/1.1/"
   xmlns:cc="http://creativecommons.org/ns#"
   xmlns:rdf="http://www.w3.org/1999/02/22-rdf-syntax-ns#"
   xmlns:svg="http://www.w3.org/2000/svg"
   xmlns="http://www.w3.org/2000/svg"
   xmlns:sodipodi="http://sodipodi.sourceforge.net/DTD/sodipodi-0.dtd"
   xmlns:inkscape="http://www.inkscape.org/namespaces/inkscape"
   viewBox="0 0 298.6 186.468"
   height="186.468"
   width="298.60001"
   xml:space="preserve"
   id="svg2"
   version="1.1"
   inkscape:version="0.91 r13725"
   sodipodi:docname="logo28.svg"><sodipodi:namedview
     pagecolor="#ffffff"
     bordercolor="#666666"
     borderopacity="1"
     objecttolerance="10"
     gridtolerance="10"
     guidetolerance="10"
     inkscape:pageopacity="0"
     inkscape:pageshadow="2"
     inkscape:window-width="1855"
     inkscape:window-height="951"
     id="namedview46"
     showgrid="false"
     fit-margin-top="0"
     fit-margin-left="0"
     fit-margin-right="0"
     fit-margin-bottom="0"
     inkscape:zoom="0.36954546"
     inkscape:cx="158"
     inkscape:cy="93.200011"
     inkscape:window-x="65"
     inkscape:window-y="24"
     inkscape:window-maximized="1"
     inkscape:current-layer="svg2" /><metadata
     id="metadata8"><rdf:RDF><cc:Work
         rdf:about=""><dc:format>image/svg+xml</dc:format><dc:type
           rdf:resource="http://purl.org/dc/dcmitype/StillImage" /><dc:title></dc:title></cc:Work></rdf:RDF></metadata><defs
     id="defs6"><clipPath
       id="clipPath18"
       clipPathUnits="userSpaceOnUse"><path
         id="path16"
         d="m 362.5,208 c -2.033,-2.066 -3.05,-4.55 -3.05,-7.45 l 0,0 c 0,-2.899 1.017,-5.366 3.05,-7.399 l 0,0 c 2.067,-2.068 4.55,-3.102 7.45,-3.102 l 0,0 c 2.899,0 5.366,1.034 7.399,3.102 l 0,0 c 2.068,2.033 3.101,4.5 3.101,7.399 l 0,0 c 0,2.9 -1.033,5.384 -3.101,7.45 l 0,0 c -2.033,2.033 -4.5,3.05 -7.399,3.05 l 0,0 c -2.9,0 -5.383,-1.017 -7.45,-3.05"
         inkscape:connector-curvature="0" /></clipPath><linearGradient
       id="linearGradient28"
       spreadMethod="pad"
       gradientTransform="matrix(21,0,0,-21,359.4502,200.5498)"
       gradientUnits="userSpaceOnUse"
       y2="0"
       x2="1"
       y1="0"
       x1="0"><stop
         id="stop24"
         offset="0"
         style="stop-opacity:1;stop-color:#000000" /><stop
         id="stop26"
         offset="1"
         style="stop-opacity:1;stop-color:#333333" /></linearGradient><clipPath
       id="clipPath38"
       clipPathUnits="userSpaceOnUse"><path
         id="path36"
         d="m 159.55,208 c -2.034,-2.066 -3.05,-4.55 -3.05,-7.45 l 0,0 c 0,-2.899 1.016,-5.366 3.05,-7.399 l 0,0 c 2.067,-2.068 4.55,-3.102 7.45,-3.102 l 0,0 c 2.9,0 5.367,1.034 7.4,3.102 l 0,0 c 2.067,2.033 3.1,4.5 3.1,7.399 l 0,0 c 0,2.9 -1.033,5.384 -3.1,7.45 l 0,0 c -2.033,2.033 -4.5,3.05 -7.4,3.05 l 0,0 c -2.9,0 -5.383,-1.017 -7.45,-3.05"
         inkscape:connector-curvature="0" /></clipPath><linearGradient
       id="linearGradient48"
       spreadMethod="pad"
       gradientTransform="matrix(21,0,0,-21,156.5,200.5498)"
       gradientUnits="userSpaceOnUse"
       y2="0"
       x2="1"
       y1="0"
       x1="0"><stop
         id="stop44"
         offset="0"
         style="stop-opacity:1;stop-color:#000000" /><stop
         id="stop46"
         offset="1"
         style="stop-opacity:1;stop-color:#333333" /></linearGradient><clipPath
       id="clipPath58"
       clipPathUnits="userSpaceOnUse"><path
         id="path56"
         d="M 288.4,269.951 218.201,148.2 l 10.448,-18.1 80.751,0 40.35,69.9 -40.35,69.951 z"
         inkscape:connector-curvature="0" /></clipPath><linearGradient
       id="linearGradient68"
       spreadMethod="pad"
       gradientTransform="matrix(-6.1e-6,139.8501,139.8501,6.1e-6,283.97461,130.09961)"
       gradientUnits="userSpaceOnUse"
       y2="0"
       x2="1"
       y1="0"
       x1="0"><stop
         id="stop64"
         offset="0"
         style="stop-opacity:1;stop-color:#000000" /><stop
         id="stop66"
         offset="1"
         style="stop-opacity:1;stop-color:#333333" /></linearGradient><clipPath
       id="clipPath78"
       clipPathUnits="userSpaceOnUse"><path
         id="path76"
         d="M 228.649,269.951 188.3,200 208.201,165.5 268.4,269.951 Z"
         inkscape:connector-curvature="0" /></clipPath><linearGradient
       id="linearGradient88"
       spreadMethod="pad"
       gradientTransform="matrix(-4.6e-6,104.44971,104.44971,4.6e-6,228.3501,165.5)"
       gradientUnits="userSpaceOnUse"
       y2="0"
       x2="1"
       y1="0"
       x1="0"><stop
         id="stop84"
         offset="0"
         style="stop-opacity:1;stop-color:#000000" /><stop
         id="stop86"
         offset="1"
         style="stop-opacity:1;stop-color:#333333" /></linearGradient></defs><g
     transform="matrix(1.3333333,0,0,-1.3333333,-208.66666,359.93466)"
     id="g10"><g
       id="g12"><g
         clip-path="url(#clipPath18)"
         id="g14"><g
           id="g20"><g
             id="g22"><path
               id="path30"
               style="fill:url(#linearGradient28);stroke:none"
               d="m 362.5,208 c -2.033,-2.066 -3.05,-4.55 -3.05,-7.45 l 0,0 c 0,-2.899 1.017,-5.366 3.05,-7.399 l 0,0 c 2.067,-2.068 4.55,-3.102 7.45,-3.102 l 0,0 c 2.899,0 5.366,1.034 7.399,3.102 l 0,0 c 2.068,2.033 3.101,4.5 3.101,7.399 l 0,0 c 0,2.9 -1.033,5.384 -3.101,7.45 l 0,0 c -2.033,2.033 -4.5,3.05 -7.399,3.05 l 0,0 c -2.9,0 -5.383,-1.017 -7.45,-3.05"
               inkscape:connector-curvature="0" /></g></g></g></g><g
       id="g32"><g
         clip-path="url(#clipPath38)"
         id="g34"><g
           id="g40"><g
             id="g42"><path
               id="path50"
               style="fill:url(#linearGradient48);stroke:none"
               d="m 159.55,208 c -2.034,-2.066 -3.05,-4.55 -3.05,-7.45 l 0,0 c 0,-2.899 1.016,-5.366 3.05,-7.399 l 0,0 c 2.067,-2.068 4.55,-3.102 7.45,-3.102 l 0,0 c 2.9,0 5.367,1.034 7.4,3.102 l 0,0 c 2.067,2.033 3.1,4.5 3.1,7.399 l 0,0 c 0,2.9 -1.033,5.384 -3.1,7.45 l 0,0 c -2.033,2.033 -4.5,3.05 -7.4,3.05 l 0,0 c -2.9,0 -5.383,-1.017 -7.45,-3.05"
               inkscape:connector-curvature="0" /></g></g></g></g><g
       id="g52"><g
         clip-path="url(#clipPath58)"
         id="g54"><g
           id="g60"><g
             id="g62"><path
               id="path70"
               style="fill:url(#linearGradient68);stroke:none"
               d="M 288.4,269.951 218.201,148.2 l 10.448,-18.1 80.751,0 40.35,69.9 -40.35,69.951 z"
               inkscape:connector-curvature="0" /></g></g></g></g><g
       id="g72"><g
         clip-path="url(#clipPath78)"
         id="g74"><g
           id="g80"><g
             id="g82"><path
               id="path90"
               style="fill:url(#linearGradient88);stroke:none"
               d="M 228.649,269.951 188.3,200 208.201,165.5 268.4,269.951 Z"
               inkscape:connector-curvature="0" /></g></g></g></g></g></svg>